<?xml version="1.0"?>
<svg bgcolor="#99ccff">
 <g visible="0">
  <polyline id="黄浦江" points="987,1176 983,1187 973,1198 950,1207 933,1214 925,1220 922,1233 925,1249 924,1261 917,1278 912,1285 908,1292 912,1304 914,1312 917,1319 922,1319 927,1326 929,1334 922,1345 918,1354 918,1366 921,1381 923,1399 928,1409 932,1420 938,1429 940,1439 943,1456 945,1472 949,1486 953,1499 955,1511 952,1520 937,1523 926,1526 912,1529 891,1536 869,1546 856,1558 840,1560 831,1562 818,1563 804,1569 790,1570 776,1574 760,1576 749,1581 747,1584" >
 </polyline>
  <polyline id="黄浦江尾段" points="747,1584 737,1582 725,1580 719,1580 711,1582 702,1586 674,1607 652,1624 628,1616 608,1612 575,1613 550,1612 546,1623 544,1640 521,1630 501,1630 489,1627 480,1619 473,1623 463,1617 456,1617 455,1622 459,1628 471,1631 481,1631 496,1643 505,1638 528,1638 540,1648 553,1654 552,1646 552,1634 560,1623 584,1626 612,1626 640,1628 657,1633 677,1617 693,1603 716,1592 733,1592 748,1595 766,1595 774,1591" >
 </polyline>
  <polyline id="嘉定青浦" points="433,1023 446,1034 456,1042 469,1051 481,1060 492,1068 508,1071 521,1079 535,1082 552,1082 567,1083" >
 </polyline>
  <polyline id="嘉定江苏" points="431,1021 426,1014 425,1006 424,998 421,998 415,1001 408,1005 403,1006 399,1006 398,1001 400,991 402,984 405,975 406,967 408,961 409,950 409,939 406,933 399,926 392,922 365,905 379,889 382,891 390,892 393,894 394,887 392,880 394,871 404,866 415,865 425,865 437,859 446,851 449,843 449,834 450,827 451,812 449,807 440,800 438,794 445,787 459,779 452,774 440,764 440,757 442,754 445,752 460,750 473,747 479,740 509,715 510,700 521,700 527,698 534,691 544,687 557,680 570,672 575,674 583,676 590,687 598,694 608,690 637,672 658,671 666,665 667,658 669,653 674,653" >
 </polyline>
  <polyline id="嘉定宝山" points="674,653 681,663 688,674 697,686 703,695 706,703 709,714 711,725 713,737 721,747 728,759 734,772 735,783 736,796 733,816 720,823 711,830 712,840 718,852 721,863 726,873 730,887 735,896 738,907 742,920 744,932 744,944 744,955 745,969 747,980 747,990 746,1003 745,1016 744,1031 747,1040 754,1047 760,1054 768,1060 776,1068 784,1075 793,1083 801,1091 811,1098 821,1107" >
 </polyline>
  <polyline id="嘉定青浦闵行" points="567,1083 577,1084 591,1085 604,1086 604,1086 616,1092 629,1097 644,1105 655,1117 667,1126 680,1133 692,1141 710,1142 730,1131 742,1121 757,1113 774,1111 791,1113 803,1112 819,1115 819,1105 821,1107" >
 </polyline>
  <polyline id="嘉定上海市" points="821,1107 829,1111 838,1119 846,1124" >
 </polyline>
  <polyline id="松江青浦嘉定" points="702,1261 698,1250 695,1240 689,1226 681,1214 679,1205 674,1196 669,1190 661,1188 647,1193 636,1193 625,1188 621,1176 617,1168 614,1157 609,1145 604,1132 597,1118 591,1110 583,1100 577,1093 567,1083" >
 </polyline>
  <polyline id="松江黄浦江闵行" points="1093,1543 1081,1552 1067,1554 1055,1553 1044,1553 1030,1553 1016,1549 1008,1543 1000,1537 994,1540 987,1545 978,1549 971,1541 968,1531" >
 </polyline>
  <polyline id="青浦松江" points="259,1639 265,1626 271,1615 287,1609 299,1612 309,1614 320,1614 334,1613 342,1610 350,1605 360,1600 367,1585 366,1570 367,1558 369,1548 373,1539 371,1526 369,1516 365,1506 358,1499 360,1486 364,1471 359,1457 351,1446 343,1440 347,1430 356,1432 369,1438 381,1440 389,1439 396,1440 401,1435 405,1426 403,1418 394,1412 391,1406 383,1398 368,1389 370,1378 373,1374 372,1364 372,1357 379,1351 389,1350 399,1355 407,1359 416,1364 426,1368 436,1372 446,1373 453,1369 454,1364 451,1356 464,1349 473,1342 482,1336 488,1322 488,1309 490,1298 495,1286 508,1287 517,1290 528,1293 537,1294 550,1293 559,1295 558,1306 553,1315 552,1324 548,1333 556,1338 565,1340 578,1340 581,1328 588,1317 597,1308 611,1306 624,1305 635,1302 647,1303 653,1297 654,1285 656,1275 665,1271 674,1267 690,1264 702,1261" >
 </polyline>
  <polyline id="青浦金山" points="195,1632 203,1632 210,1633 216,1633 223,1633 229,1634 235,1634 240,1637 248,1639 260,1638" >
 </polyline>
  <polyline id="青浦淀山湖江苏" points="0,1363 8,1349 19,1363 25,1354 25,1344 40,1338 52,1340 50,1334 26,1334 16,1334 15,1340 9,1340 9,1334 7,1320 8,1312 13,1302 20,1293 18,1295 33,1295 52,1298 62,1300 71,1299 80,1295 89,1287 99,1287 111,1287 127,1288 144,1288 158,1294 170,1300 183,1301 197,1296 210,1290 228,1287" >
 </polyline>
  <polyline id="青浦江苏" points="432,1021 435,1038 427,1042 410,1039 397,1037 382,1041 370,1043 360,1043 353,1034 343,1031 335,1034 333,1046 323,1051 310,1059 302,1064 300,1074 299,1086 300,1100 300,1118 300,1127 303,1146 305,1158 308,1171 311,1190 315,1204 321,1215 322,1225 322,1239 323,1257 317,1268 307,1270 297,1271 285,1273 281,1279 284,1285 279,1294 274,1305 265,1302 258,1296 243,1290 228,1287" > 
 </polyline>
  <polyline id="江苏淀山湖青浦" points="192,1536 185,1524 174,1520 164,1515 150,1512 137,1506 128,1509 115,1506 107,1510 94,1507 75,1513 62,1513 54,1507 45,1504 44,1496 47,1485 49,1475 44,1464 44,1448 45,1427 51,1412 48,1400 43,1389 37,1378 30,1370 16,1369 0,1363" > 
 </polyline>
  <polyline id="江苏青浦" points="192,1536 194,1548 196,1556 201,1563 206,1570 203,1577 197,1584 200,1582 192,1587 187,1592 188,1603 191,1614 194,1624 195,1633" > 
 </polyline>
  <polyline id="江苏右北" points="766,0 794,11 838,28 875,41 923,53 952,76 983,111 996,126 1005,128 1037,156 1067,157 1070,169 1110,193 1157,223 1195,240 1233,252 1272,259 1308,261 1329,268 1456,307 1502,329 1533,325 1573,312 1591,303 1614,263 1613,218 1603,182 1575,137 1532,37 1521,0 767,0 " >
 </polyline>
  <polyline id="江苏左北" points="118,0 119,12 127,32 131,53 132,71 143,81 173,80 181,86 187,96 213,94 235,85 246,68 262,58 281,86 300,100 320,106 360,130 384,115 384,103 404,102 418,94 425,81 418,74 410,63 409,36 418,26 426,28 452,39 463,40 481,35 502,17 519,8 526,3 559,3 573,0 117,1 " >
 </polyline>
  <polyline id="江苏长江" visible="0" points="0,169 14,174 28,184 90,184 93,182 106,180 107,188 115,192 117,186 117,180 140,173 164,186 173,183 173,180 190,183 196,180 201,181 309,240 306,246 296,248 307,252 315,252 333,245 402,292 406,303 404,312 423,311 484,355 495,359 545,407 560,411 580,433 585,458 615,477 612,493 628,504 639,525 640,545 687,619 725,652 " >
 </polyline>
  <polyline id="江苏宝山大海" points="674,653 681,651 692,647 705,652 718,655 723,649 725,652" >
 </polyline>
  <polyline id="金山浙江" points="195,1632 194,1638 196,1650 199,1662 201,1675 200,1691 197,1700 192,1710 191,1721 195,1729 201,1740 207,1747 219,1756 226,1763 227,1773 226,1783 224,1791 218,1801 213,1811 206,1818 198,1825 190,1836 183,1848 186,1857 197,1857 206,1852 216,1845 223,1838 228,1836 236,1840 242,1849 244,1856 248,1866 257,1875 268,1879 276,1873 272,1863 270,1854 276,1844 285,1838 294,1833 301,1827 316,1822 331,1817 346,1816 357,1814 370,1815 378,1821 385,1827 394,1835 401,1841 413,1851 418,1860 414,1869 408,1880 402,1893 400,1904 402,1912 404,1922 409,1930 418,1938 429,1942 439,1944 450,1945 463,1946 473,1946 485,1944 500,1940 516,1937 526,1932 537,1931 541,1938 545,1952 551,1966 555,1973 562,1985 570,1992 577,1998 587,2005 593,2009 600,2016 607,2024 612,2033 617,2041 622,2052 626,2062 628,2072 630,2087" >
 </polyline>
  <polyline id="金山大海" points="628,2086 635,2086 641,2085 653,2081 665,2079 678,2076 690,2077 701,2076 712,2072 720,2070 731,2072 739,2069 745,2062 751,2058 759,2053 765,2046 772,2040 780,2032 785,2025 792,2016 800,2010 807,2001 815,1993 823,1987 832,1977 838,1969 848,1960 858,1950 866,1940 872,1934 881,1927 890,1921 901,1915 909,1909" >
 </polyline>
  <polyline id="金山松江" points="259,1639 261,1640 255,1654 252,1666 251,1679 250,1690 254,1700 261,1705 270,1706 278,1707 288,1708 300,1710 310,1710 321,1710 333,1709 341,1708 351,1706 353,1697 352,1689 353,1680 361,1673 372,1675 382,1677 390,1678 398,1679 402,1688 403,1699 407,1706 414,1713 414,1721 412,1730 416,1732 428,1735 439,1732 445,1728 438,1722 433,1716 429,1708 422,1699 424,1690 427,1682 433,1685 438,1688 445,1691 452,1687 457,1684 463,1686 471,1691 481,1690 492,1691 506,1691 516,1687 527,1683 534,1677 551,1673 559,1667 566,1670 579,1678 586,1689 595,1694 602,1698 613,1704 621,1712 630,1718 641,1722 654,1722 660,1716 657,1708 654,1695 658,1688 666,1693 675,1698 688,1701 699,1705 709,1706 725,1707 737,1705 751,1704 761,1701 759,1700" >
 </polyline>
  <polyline id="奉贤金山" points="759,1700 764,1712 775,1715 779,1730 781,1744 781,1752 791,1754 796,1763 800,1776 802,1788 806,1801 807,1811 801,1819 795,1832 797,1842 806,1846 814,1845 826,1848 835,1848 839,1858 851,1866 863,1867 874,1867 885,1866 888,1876 886,1886 895,1894 901,1901 911,1910" >
 </polyline>
  <polyline id="奉贤松江" points="774,1591 772,1603 771,1617 770,1632 770,1646 766,1661 759,1667 752,1674 753,1682 759,1685 761,1702 762,1694 759,1700" >
 </polyline>
  <polyline id="奉贤南汇" points="1400,1828 1401,1821 1400,1812 1401,1803 1394,1796 1388,1791 1390,1782 1395,1773 1398,1761 1398,1748 1400,1736 1405,1725 1407,1712 1406,1692 1405,1684 1402,1672 1400,1662 1386,1655 1376,1648 1369,1637 1364,1627 1353,1622 1340,1615 1332,1607 1330,1594 1324,1589 1314,1585 1301,1579 1292,1573 1280,1571 1270,1567 1257,1563 1244,1559 1233,1560 1222,1563 1211,1562 1202,1563 1189,1562 1178,1563 1164,1562 1151,1554 1141,1549 1129,1545 1116,1545 1104,1543 1092,1542 1093,1543" >
 </polyline>
  <polyline id="奉贤大海" points="910,1910 924,1904 933,1906 947,1903 958,1899 968,1897 979,1891 991,1888 1003,1883 1014,1879 1029,1876 1035,1876 1048,1873 1063,1870 1075,1867 1087,1865 1105,1860 1122,1856 1136,1853 1153,1850 1170,1844 1181,1845 1195,1842 1211,1842 1231,1840 1243,1839 1259,1837 1275,1837 1290,1834 1306,1833 1325,1832 1341,1830 1358,1830 1366,1829 1371,1831 1377,1833 1390,1833 1390,1828 1400,1828" >
 </polyline>
  <polyline id="闵行松江" points="702,1259 709,1270 714,1278 725,1292 731,1301 738,1313 746,1326 757,1337 761,1347 769,1357 775,1365 781,1373 787,1383 784,1394 773,1409 766,1416 763,1428 754,1433 745,1438 735,1439 725,1445 720,1456 716,1472 713,1489 714,1503 722,1517 728,1526 727,1538 723,1548 721,1562 723,1573 734,1579 747,1584" >
 </polyline>
  <polyline id="闵行南汇" points="1043,1341 1047,1341 1057,1342 1066,1342 1079,1348 1084,1362 1090,1371 1083,1381 1073,1383 1065,1390 1070,1399 1084,1401 1086,1405 1077,1418 1066,1425 1056,1429 1055,1439 1054,1449 1056,1460 1063,1462 1073,1467 1075,1478 1076,1487 1072,1505 1078,1508 1087,1507 1097,1503 1097,1505 1092,1514 1085,1519 1091,1533 1093,1543" >
 </polyline>
  <polyline id="闵行黄浦江奉贤" points="968,1531 957,1528 945,1530 935,1536 924,1539 910,1541 898,1543 885,1552 873,1560 860,1567 846,1572 834,1574 825,1576 812,1579 803,1581 792,1585 784,1589 774,1591" >
 </polyline>
  <polyline id="南汇大海" points="1400,1828 1414,1826 1430,1824 1442,1823 1454,1820 1468,1820 1484,1818 1497,1817 1509,1815 1521,1813 1534,1812 1548,1810 1562,1805 1578,1797 1585,1785 1591,1769 1595,1753 1600,1741 1605,1731 1611,1718 1612,1701 1614,1679 1615,1666 1615,1651 1615,1639 1612,1623 1609,1613 1604,1600 1599,1582 1596,1571 1589,1559 1581,1545 1577,1531 1568,1512 1561,1502 1554,1489 1542,1477 1533,1460 1526,1439 1521,1420 1513,1406 1508,1390 1500,1376 1495,1362 1491,1352 1487,1340 1484,1331 1478,1318 1472,1309 1465,1298" >
 </polyline>
  <polyline id="南汇浦东" points="1465,1298 1388,1314 1366,1330 1353,1338 1335,1336 1335,1313 1285,1301 1283,1272 1275,1271 1261,1294 1253,1309 1220,1309 1208,1312 1196,1284 1196,1270 1178,1261 1167,1271 1145,1273 1126,1273 1102,1282 1070,1275 1061,1278 1061,1286 1076,1297 1058,1312 1038,1330 1043,1341" >
 </polyline>
  <polyline id="浦东闵行" points="933,1345 1033,1340 1043,1341" >
 </polyline>
  <polyline id="浦东上海" points="1052,1099 1035,1110 1015,1111 998,1115 986,1117 978,1125 985,1137 992,1148 1001,1164 996,1179" >
 </polyline>
  <polyline id="浦东大海" points="1465,1298 1409,1203 1354,1110 1337,1069 1313,1057 1262,984 1243,983 1161,919 1126,893 1036,859 1016,857 997,878 997,897 1013,915 1076,955 1089,1023 1093,1072 1052,1099" >
 </polyline>
  <polyline id="浦东上海黄浦江" points="1052,1099  1059,1106 1066,1114 1075,1123 1083,1128 1085,1134 1084,1142 1084,1155 1081,1164 1080,1173 1066,1181 1033,1181 1025,1179 1009,1179 996,1179 " >
 </polyline>
  <polyline id="浦东闵行奉贤" points="968,1531 973,1531 974,1519 978,1516 966,1501 957,1462 950,1423 940,1382 931,1359 936,1339 933,1345" >
 </polyline>
  <polyline id="宝山大海" points="725,652 737,658 755,661 772,671 792,688 818,691 839,706 863,723 892,745 904,759 917,769 932,783 946,800 959,801 1000,847 989,865 982,876 985,906 1003,928 1027,941 1054,950 1064,957 1069,979 1073,1018 1077,1043 1077,1061 1047,1091 " >
 </polyline>
  <polyline id="宝山上海市嘉定" points="1047,1089 1043,1089 1042,1086 1068,1054 1056,1034 1041,1039 1026,1041 1008,1048 995,1057 991,1062 986,1056 978,1056 961,1055 952,1055 941,1064 927,1080 917,1082 893,1085 870,1092 846,1124" >
 </polyline>
  <polyline id="崇明主岛大海" points="668,22 658,27 647,31 639,31 631,24 616,24 566,48 566,56 560,56 558,52 536,67 508,97 490,111 480,125 479,138 503,160 524,186 557,229 573,236 594,241 605,253 628,267 655,292 660,292 664,295 672,293 672,305 699,350 715,364 727,351 727,360 724,370 749,391 776,412 801,421 803,443 820,448 852,447 858,450 880,471 919,493 961,506 984,529 1006,528 1018,532 1021,541 1042,558 1070,572 1098,593 1109,594 1118,603 1134,610 1142,623 1166,617 1208,619 1233,630 1273,645 1295,652 1307,654 1314,670 1346,685 1375,701 1402,703 1425,710 1456,719 1486,722 1511,720 1537,710 1574,681 1578,676 1578,657 1585,639 1595,604 1596,590 1594,581 1594,577 1574,558 1517,529 1498,526 1485,531 1478,540 1478,532 1490,513 1383,470 1368,473 1284,423 1269,416 1256,415 1222,392 1201,392 1189,393 1116,355 1107,345 1087,312 1050,286 1024,274 1028,265 1023,256 987,238 970,217 951,205 964,186 962,178 823,71 784,57 761,43 719,35 671,22" >
 </polyline>
  <polyline id="淀山湖" points="228,1287 241,1296 226,1317 226,1331 217,1346 217,1355 198,1363 187,1376 150,1388 138,1399 126,1406 103,1409 93,1410 73,1410 72,1415 65,1405 72,1396 58,1395 57,1406 60,1418 73,1420 66,1437 60,1438 65,1454 51,1446 49,1434 51,1462 63,1468 54,1493 68,1509 85,1511 93,1501 85,1478 97,1467 78,1443 79,1433 91,1441 105,1437 105,1451 114,1450 125,1422 128,1423 131,1441 160,1429 176,1418 178,1411 192,1411 196,1418 190,1426 174,1427 168,1430 183,1436 193,1439 184,1469 186,1476 172,1472 168,1472 168,1463 173,1448 179,1444 169,1436 154,1443 129,1445 104,1464 105,1474 122,1477 119,1465 129,1472 131,1482 119,1485 108,1488 105,1503 120,1504 135,1499 138,1490 143,1482 154,1485 152,1497 166,1501 177,1514 195,1514 202,1516 218,1514 231,1521 231,1524 201,1527 192,1536" >
 </polyline>
  <polyline id="淀山湖小岛一" points="24,1327 42,1326 50,1328 59,1330 62,1332 68,1324 73,1314 66,1305 57,1305 56,1313 52,1315 47,1305 46,1299 42,1298 42,1304 29,1304 16,1309 12,1309 12,1315 12,1323 8,1326 10,1330 17,1332 23,1332 26,1326 35,1327 " >
 </polyline>
  <polyline id="淀山湖小岛二" points="86,1310 84,1304 92,1300 99,1298 105,1297 109,1299 110,1301 108,1304 109,1309 109,1312 97,1312 94,1310 91,1309 90,1307 87,1309 85,1310 " >
 </polyline>
  <polyline id="淀山湖小岛三" points="74,1330 86,1337 91,1337 101,1344 105,1343 112,1341 119,1341 122,1338 123,1333 128,1330 125,1325 119,1323 113,1322 108,1321 106,1319 81,1319 83,1321 77,1328 " >
 </polyline>
  <polyline id="淀山湖小岛四" points="62,1384 66,1381 70,1381 74,1372 77,1365 83,1358 84,1352 79,1339 73,1337 67,1337 60,1337 56,1339 53,1339 54,1356 52,1362 47,1362 46,1359 46,1355 42,1354 38,1355 33,1359 42,1376 47,1377 47,1372 49,1370 50,1375 56,1373 59,1374 62,1382 " >
 </polyline>
  <polyline id="淀山湖小岛五" points="16,1367 23,1363 24,1355 24,1344 30,1339 41,1339 45,1342 49,1339 50,1337 22,1334 22,1339 15,1342 9,1339 8,1336 2,1346 11,1347 14,1354 17,1364 " >
 </polyline>
  <polyline id="团结岛" points="1572,781 1568,791 1585,790 1603,783 1601,762 1585,750 1558,738 1547,749 1563,752 1564,766 1553,763 1539,751 1535,754 1535,766 1535,778 1552,785 1566,781 1576,781 " >
 </polyline>
  <polyline id="长兴岛" points="1104,767 1141,789 1150,785 1151,795 1209,830 1231,852 1316,900 1328,913 1343,927 1354,922 1383,971 1407,979 1437,984 1437,970 1430,964 1430,918 1399,889 1412,886 1381,867 1353,830 1319,810 1294,810 1230,780 1153,753 1143,746 1111,746 1101,767 " >
 </polyline>
  <polyline id="黄瓜沙" points="1029,195 1047,213 1026,218 1023,223 991,193 984,190 984,181 999,171 1007,178 1031,195 " >
 </polyline>
  <polyline id="横沙岛" points="1435,869 1496,886 1502,880 1559,911 1577,929 1589,948 1567,996 1534,1025 1522,1036 1501,1016 1504,1008 1488,1006 1461,972 1456,928 1438,890 1434,870 " >
 </polyline>
  <polyline id="浙江边界" points="628,2086 618,2087 605,2092 599,2098 597,2101 0,2100 0,1536 " >
 </polyline>
  <polyline id="上海市" points="846,1124 841,1137 836,1150 836,1166 841,1187 850,1209 861,1222 878,1232 896,1227 922,1213 988,1174 990,1162 987,1152 979,1140 971,1131 967,1126 972,1115 981,1109 994,1106 1010,1101 1023,1101 1034,1098 1045,1093 1046,1089 " >
 </polyline>
  <polyline id="上海浦东" points="933,1345 938,1330 937,1317 927,1300 931,1292 934,1278 940,1260 938,1224 950,1219 982,1207 996,1183 996,1179" >
 </polyline>
</g>
 <g id="区" stroke="#000000" showtitle="1" font-family="隶书" font-size="40" font-color="#FF0000" dashpattern="1,1,5,1">
  <polygon id="青浦区" fill="#E6F5E1" points="[青浦江苏] [淀山湖] [江苏青浦] [青浦金山] [青浦松江] [松江青浦嘉定] $[嘉定青浦]" titledy="25" titledx="-90">
  </polygon>
  <polygon id="闵行区" fill="#CFDCED" points="[黄浦江] $[闵行松江] [松江青浦嘉定] [嘉定青浦闵行] [嘉定上海市]" titledy="0" titledx="35">
  </polygon>
  <polygon id="闵行右区" fill="#CFDCED" points="$[浦东闵行奉贤] $[松江黄浦江闵行] [浦东闵行] [闵行南汇]" showtitle="0">
  </polygon>
  <polygon id="浦东区" fill="#E6F6F9" points="[浦东大海] [浦东上海黄浦江] [上海浦东] [浦东闵行] $[南汇浦东]" titledy="150">
  </polygon>
  <polygon id="南汇区" fill="#FEE6DB" points="[南汇大海] [南汇浦东] [闵行南汇] [奉贤南汇]" titledy="-50">
  </polygon>
  <polygon id="奉贤区" fill="#E6F6F9" points="$[奉贤松江] $[闵行黄浦江奉贤] $[松江黄浦江闵行] [奉贤南汇] $[奉贤大海] $[奉贤金山]" titledy="0">
  </polygon>
  <polygon id="宝山区" fill="#E6F5E1" points="[宝山上海市嘉定] $[嘉定上海市] $[嘉定宝山] [江苏宝山大海] [宝山大海]" titledy="50">
  </polygon>
  <polygon id="嘉定区" fill="#FEE6F2" points="[嘉定江苏] [嘉定宝山]  $[嘉定青浦闵行] $[嘉定青浦]" titledy="-30">
  </polygon>
  <polygon id="松江区" fill="#FEE6DB" points="$[青浦松江] [金山松江] $[奉贤松江] $[黄浦江尾段] $[闵行松江]" titledy="0" titledx="35" font-size="35">
  </polygon>
  <polygon id="金山区" fill="#FEE6F2" points=" [金山松江] [奉贤金山] $[金山大海] $[金山浙江] [青浦金山]" titledy="-60">
  </polygon>
  <polygon id="上海市区" fill="#FFFFEE" points=" [上海市] [宝山上海市嘉定]" titledy="0">
  </polygon>
  <polygon id="上海市右区" fill="#FFFFEE" points=" [浦东上海] [浦东上海黄浦江]" showtitle="0">
  </polygon>
  <polygon id="崇明县" fill="#FEE6DB" points="[崇明主岛大海]" titledy="0">
  </polygon>
  <polygon id="团结岛" fill="#FEE6DB" points="[团结岛]" titledy="0" titledx="-80" font-size="20">
  </polygon>
  <polygon id="长兴岛" fill="#FEE6DB" points="[长兴岛]" titledy="-100" titledx="0" font-size="30">
  </polygon>
  <polygon id="横沙岛" fill="#FEE6DB" points="[横沙岛]" titledy="100" titledx="60" font-size="30">
  </polygon>
  <polygon id="黄瓜沙" fill="#FEE6DB" points="[黄瓜沙]" titledy="0" titledx="40" font-size="20">
  </polygon>
  <polygon id="淀山湖" fill="#99ccff" points="$[青浦淀山湖江苏] $[江苏淀山湖青浦]  $[淀山湖] " titledy="-30" titledx="0" font-size="25">
  </polygon>
  <polygon id="淀山湖小岛一" fill="#ffffee" points="[淀山湖小岛一]" showtitle="0">
  </polygon>
  <polygon id="淀山湖小岛二" fill="#ffffee" points="[淀山湖小岛二]" showtitle="0">
  </polygon>
  <polygon id="淀山湖小岛三" fill="#ffffee" points="[淀山湖小岛三]" showtitle="0">
  </polygon>
  <polygon id="淀山湖小岛? fill="#ffffee" points="淀山湖小岛四]" showtitle="0">
  </polygon>
  <polygon id="淀山湖小岛五" fill="#ffffee" points="[淀山湖小岛五]" showtitle="0">
  </polygon>
  <polygon id="江苏省" fill="#ffffff" points="[江苏右北]" titledy="-130">
  </polygon>
  <polygon id="江苏省" fill="#ffffff" points="[江苏左北]" titledy="-130">
  </polygon>
  <polygon id="江苏省" fill="#ffffff" points="[江苏长江] $[江苏宝山上海市] $[嘉定江苏] [青浦江苏] $[青浦淀山湖江苏]"  titledx="-80" titledy="0">
  </polygon>
  <polygon id="浙江省" fill="#ffffff" points="$[江苏淀山湖青浦] [江苏青浦] [金山浙江] [浙江边界]"  titledx="-200" titledy="150">
  </polygon>
</g>
 <g id="高速" stroke="#FFFF88" stroke-width="3">
  <polyline id="" points="671,657 696,674 706,686 713,725 713,737 735,775 738,812 776,878 788,907 804,927 824,926 836,944 852,1008 916,991 928,987 959,1005 968,1009 979,1009 1003,1008 1028,973 1023,949 1025,938 " >　</polyline>
  <polyline id="" points="505,713 552,788 601,865 642,914 665,957 696,997 795,1043 851,1074 " >　</polyline>
  <polyline id="" points="444,856 477,892 521,888 545,891 570,879 604,886 633,954 665,1012 686,1039 692,1040 717,1027 744,1031 766,1050 787,1055 824,1074 827,1098 " >　</polyline>
  <polyline id="" points="428,1017 527,1040 649,1069 730,1089 847,1116 " >　</polyline>
  <polyline id="" points="48,1502 68,1500 71,1452 82,1432 105,1421 123,1420 184,1380 273,1360 295,1355 384,1297 391,1275 419,1264 472,1266 506,1278 569,1272 638,1261 678,1240 713,1237 732,1243 738,1245 783,1202 841,1185 " >　</polyline>
  <polyline id="" points="200,1739 292,1640 322,1611 417,1543 588,1532 628,1503 735,1393 835,1294 880,1249 879,1228 " >　</polyline>
  <polyline id="" points="309,1658 339,1659 370,1662 385,1647 466,1666 571,1663" >　</polyline>
  <polyline id="" points="634,2075 681,2058 751,2060 827,1974 896,1901 1001,1829 1017,1796 1216,1712 1283,1684 1381,1634 " >　</polyline>
  <polyline id="" points="1383,1635 1457,1667 1517,1770 1548,1717 1551,1682 1554,1587 1549,1534 1516,1489 1406,1477 1350,1481 1216,1498 1130,1507 " >　</polyline>
  <polyline id="" points="1414,1479 1384,1635 " >　</polyline>
  <polyline id="" points="1388,1475 1389,1434 1385,1372 1385,1348 1392,1312 1341,1186 1185,1229 1161,1181 1069,1218 " >　</polyline>
  <polyline id="" points="908,1697 966,1699 1054,1696 1115,1696 1132,1696 1198,1719 " >　</polyline>
  <polyline id="" points="708,2057 695,2011 687,1976 658,1903 666,1848 678,1794 693,1765 763,1744 832,1728 893,1727 " >　</polyline>
  <polyline id="" points="668,83 669,142 660,162 662,215 701,251 754,273 749,303 771,334 836,370 839,420 884,417 939,464 1011,507 1071,530 1117,553 1176,581 1251,446 " >　</polyline>
  <polyline id="" points="1158,770 1174,801 1231,829 1278,834 1304,856 1362,874 1384,918 1393,921 1411,932 1413,940 1399,954 " >　</polyline>
  <polyline id="" points="290,1358 289,1409 284,1444 258,1466 271,1523 275,1577 232,1619 227,1687 221,1716 225,1752 288,1781 381,1763 403,1748 503,1747 527,1740 618,1744 683,1755 694,1771 " >　</polyline>
  <polyline id="" points="492,909 525,951 552,991 558,1003 546,1047 " >　</polyline>
  <polyline id="" points="830,737 858,795 882,907 906,1016 914,1072 " >　</polyline>
  <polyline id="" points="638,960 691,940 723,925 745,925 785,904 805,902 810,907 839,892 870,891 887,886 964,829 " >　</polyline>
  <polyline id="" points="490,906 486,936 438,985 432,1093 395,1198 392,1277 " >　</polyline>
  <polyline id="" points="427,1094 333,1090 348,1156 332,1169 327,1214 331,1260 343,1277 352,1277 395,1268 " >　</polyline>
  <polyline id="" points="392,1214 485,1213 554,1203 708,1158 735,1154 787,1167 836,1170 " >　</polyline>
  <polyline id="" points="381,1297 393,1314 404,1331 416,1340 437,1341 453,1344 483,1358 506,1384 548,1401 577,1404 618,1388 628,1390 655,1335 677,1313 693,1305 749,1272 846,1259 875,1253 " >　</polyline>
  <polyline id="" points="509,1386 441,1414 437,1443 432,1461 414,1481 422,1547 " >　</polyline>
  <polyline id="" points="625,1389 618,1429 614,1476 593,1501 582,1535 " >　</polyline>
  <polyline id="" points="741,1279 784,1349 828,1432 875,1591 910,1702 890,1729 890,1745 895,1768 937,1863 " >　</polyline>
  <polyline id="" points="838,1469 773,1497 735,1522 666,1530 652,1545 594,1554 580,1578 572,1662 576,1747 " >　</polyline>
  <polyline id="" points="1059,1187 1073,1263 1105,1349 1129,1508 1089,1565 1053,1597 908,1704 " >　</polyline>
  <polyline id="" points="569,91 623,86 670,84 731,98 777,139 805,200 828,250 873,265 929,320 993,347 1137,406 1150,405 1236,442 1472,563 1526,590 1458,664 1424,644 1417,646 1403,637 1371,620 1333,631 1317,614 1286,602 1286,584 1255,556 1189,556 " >　</polyline>
  <polyline id="" points="1383,1348 1338,1332 1250,1347 1103,1371 " >　</polyline>
</g>
 <g id="公路" stroke="#66FF00" stroke-width="2" >
  <polyline id="" points="674,660 675,689 678,767 696,829 717,884 732,894 741,947 742,976 724,1010 " >　</polyline>
  <polyline id="" points="605,694 625,777 625,833 658,902 714,878 " >　</polyline>
  <polyline id="" points="370,901 395,900 467,866 571,830 647,811 689,797 727,774 707,750 708,733 699,718 693,683 675,664 " >　</polyline>
  <polyline id="" points="413,957 443,927 489,891 550,895 610,861 628,839 682,828 698,819 745,817 766,786 783,775 817,760 826,733 " >　</polyline>
  <polyline id="" points="433,863 487,931 529,1009 503,1040 493,1060 449,1053 434,1081 412,1106 391,1150 386,1224 375,1287 313,1335 228,1355 214,1355 " >　</polyline>
  <polyline id="" points="491,1060 500,1083 516,1086 582,1084 613,1087 659,1112 665,1127 661,1145 653,1160 665,1185 651,1204 642,1232 678,1301 670,1360 680,1373 686,1404 658,1493 644,1530 643,1567 675,1612 " >　</polyline>
  <polyline id="" points="548,1086 556,1186 564,1317 569,1349 584,1339 587,1355 587,1378 579,1382 561,1383 554,1383 537,1350 506,1294 484,1215 483,1195 471,1180 438,1179 413,1180 423,1235 425,1287 432,1347 442,1372 454,1376 458,1402 481,1426 486,1433 486,1438 484,1447 492,1459 483,1466 481,1486 478,1496 490,1517 489,1535 " >　</polyline>
  <polyline id="" points="373,1290 412,1286 469,1286 506,1297 529,1302 565,1300 607,1302 659,1314 711,1334 762,1336 786,1330 821,1324 915,1311 " >　</polyline>
  <polyline id="" points="343,1162 345,1267 345,1270 349,1327 361,1505 362,1540 367,1600 423,1612 455,1618 463,1617 438,1579 405,1545 351,1516 312,1479 245,1422 180,1382 " >　</polyline>
  <polyline id="" points="194,1630 224,1626 281,1603 311,1603 369,1600 " >　</polyline>
  <polyline id="" points="550,1666 551,1682 521,1700 488,1717 489,1759 495,1763 486,1778 481,1781 481,1831 508,1842 535,1836 615,1894 649,1917 675,1973 685,2040 694,2062 " >　</polyline>
  <polyline id="" points="481,1829 474,1862 470,1870 484,1916 504,1936 503,1930 606,1925 626,1921 643,1923 643,1912 655,1901 672,1880 698,1861 675,1816 " >　</polyline>
  <polyline id="" points="977,1515 1002,1516 1108,1525 1183,1525 1230,1527 1376,1537 1465,1537 1584,1546 " >　</polyline>
  <polyline id="" points="1045,1533 1067,1577 1068,1620 1105,1625 1130,1617 1148,1622 1206,1629 1205,1683 1205,1697 1178,1714 1147,1730 1095,1751 1017,1783 955,1803 927,1807 878,1806 820,1802 794,1800 " >　</polyline>
  <polyline id="" points="937,1857 983,1831 991,1827 1009,1823 1041,1817 1069,1796 1127,1768 1141,1769 1166,1767 1185,1769 1200,1790 1204,1789 1198,1797 1237,1795 1244,1787 1257,1784 1265,1770 1284,1769 1275,1739 1266,1720 1264,1692 1189,1691 1148,1684 1150,1616 1142,1581 1132,1504 " >　</polyline>
  <polyline id="" points="937,1264 1062,1234 1207,1201 1385,1161 " >　</polyline>
  <polyline id="" points="947,1402 1079,1355 1170,1324 1236,1308 1346,1275 1300,1192 1248,1068 1241,1046 1225,1012 1168,1036 1101,1034 " >　</polyline>
  <polyline id="" points="1347,1274 1367,1334 1373,1403 1378,1514 1371,1568 1354,1610 1342,1638 1298,1666 1245,1690 1201,1648 1148,1635 " >　</polyline>
  <polyline id="" points="489,138 565,147 636,156 721,172 782,187 815,169 810,108 764,102 695,65 649,63 568,63 " >　</polyline>
  <polyline id="" points="549,211 555,170 569,127 502,115 512,98 562,64 583,50 634,38 706,51 820,94 846,187 879,232 " >　</polyline>
  <polyline id="" points="728,45 677,193 653,257 730,300 753,332 867,397 962,450 " >　</polyline>
  <polyline id="" points="959,451 1030,485 1083,514 1180,567 1261,605 1446,688 1493,614 1312,508 1337,462 1262,426 1202,408 1139,393 1120,496 1085,491 993,433 1002,343 1002,328 1071,340 1086,363 1106,374 1096,415 992,380 852,312 882,244 914,244 979,266 965,330 956,397 932,434 919,452 " >　</polyline>
  <polyline id="" points="1198,620 1315,451 " >　</polyline>
  <polyline id="" points="1338,464 1351,482 1375,489 1434,521 1442,520 1478,535 1508,550 1542,553 1564,565 1574,582 1577,594 1579,611 1576,636 1567,656 1564,667 1574,675 " >　</polyline>
  <polyline id="" points="578,1837 687,1832 773,1831 828,1835 881,1853 868,1764 854,1697 836,1612 " >　</polyline>
  <polyline id="" points="834,1613 809,1580 " >　</polyline>
  <polyline id="" points="588,1351 618,1352 617,1386 611,1435 607,1476 606,1513 613,1549 609,1615 " >　</polyline>
</g>
 <g id="点" storke-width="1" stroke="#0000FF" r="3" fill="#FFFFFF" showtitle="1" stroke-width="4" fontsize="11.5">
  <circle id="跃进农场" cx="569" cy="94" x="569" y="94" width="0" height="0" >
  </circle>
  <circle id="新海农场" cx="669" cy="79" x="669" y="82" width="0" height="0">
  </circle>
  <circle id="红星农场" cx="781" cy="136" x="781" y="136" width="0" height="0" >
  </circle>
  <circle id="海桥" cx="690" cy="151" x="690" y="151" width="0" height="0" >
  </circle>
  <circle id="新建" cx="564" cy="194" x="564" y="194" width="0" height="0" >
  </circle>
  <circle id="草棚" cx="656" cy="221" x="656" y="221" width="0" height="0" >
  </circle>
  <circle id="猛将庙" cx="781" cy="232" x="781" y="232" width="0" height="0" >
  </circle>
  <circle id="长征农场" cx="844" cy="202" x="844" y="202" width="0" height="0" >
  </circle>
  <circle id="庙镇" cx="746" cy="276" x="751" y="273" width="1" height="0"  r="3">
  </circle>
  <circle id="西三江口" cx="776" cy="333" x="776" y="333" width="0" height="0" >
  </circle>
  <circle id="港西" cx="840" cy="314" x="840" y="314" width="0" height="0" >
  </circle>
  <circle id="东风农场" cx="965" cy="285" x="965" y="285" width="0" height="0" >
  </circle>
  <circle id="崇明" cx="821" cy="438" x="821" y="438" width="0" height="0" >
  </circle>
  <circle id="下三星" cx="921" cy="379" x="921" y="379" width="0" height="0" >
  </circle>
  <circle id="长江农场" cx="1041" cy="352" x="1041" y="352" width="0" height="0" >
  </circle>
  <circle id="候家" cx="919" cy="441" x="919" y="445" width="0" height="0"  r="3">
  </circle>
  <circle id="蟠龙" cx="971" cy="435" x="971" y="435" width="0" height="0" >
  </circle>
  <circle id="新风" cx="1031" cy="444" x="1031" y="444" width="0" height="0" >
  </circle>
  <circle id="前进农场" cx="1139" cy="397" x="1139" y="397" width="0" height="0" >
  </circle>
  <circle id="大新" cx="1149" cy="446" x="1149" y="446" width="0" height="0" >
  </circle>
  <circle id="新河" cx="1034" cy="511" x="1034" y="515" width="0" height="0"  r="3">
  </circle>
  <circle id="竖河" cx="1113" cy="545" x="1113" y="549" width="0" height="0" r="3">
  </circle>
  <circle id="堡镇" cx="1174" cy="583" x="1174" y="583" width="0" height="0">
  </circle>
  <circle id="港沿" cx="1220" cy="498" x="1220" y="498" width="0" height="0">
  </circle>
  <circle id="合兴" cx="1306" cy="508" x="1306" y="508" width="0" height="0">
  </circle>
  <circle id="五" cx="1274" cy="602" x="1274" y="602" width="0" height="0">
  </circle>
  <circle id="向化" cx="1319" cy="623" x="1319" y="623" width="0" height="0">
  </circle>
  <circle id="汲浜" cx="1391" cy="616" x="1391" y="616" width="0" height="0">
  </circle>
  <circle id="陈家" cx="1458" cy="669" x="1457" y="666" width="0" height="0" r="3">
  </circle>
  <circle id="裕安" cx="1504" cy="606" x="1508" y="609" width="0" height="0" r="3">
  </circle>
  <circle id="前哨农场" cx="1558" cy="612" x="1558" y="612" width="0" height="0">
  </circle>
  <circle id="潘家沙" cx="1154" cy="771" x="1158" y="771" width="0" height="0" r="3">
  </circle>
  <circle id="前卫农场" cx="1313" cy="843" x="1313" y="843" width="0" height="0">
  </circle>
  <circle id="凤凰" cx="1283" cy="858" x="1283" y="858" width="0" height="0">
  </circle>
  <circle id="圆沙" cx="1395" cy="958" x="1395" y="958" width="0" height="0">
  </circle>
  <circle id="富民" cx="1473" cy="894" x="1473" y="894" width="0" height="0">
  </circle>
  <circle id="新民" cx="1509" cy="949" x="1509" y="949" width="0" height="0">
  </circle>
  <circle id="丰乐" cx="1528" cy="978" x="1528" y="978" width="0" height="0">
  </circle>
  <circle id="罗泾" cx="741" cy="685" x="741" y="685" width="0" height="0">
  </circle>
  <circle id="盛桥" cx="828" cy="730" x="827" y="734" width="0" height="0" r="3">
  </circle>
  <circle id="罗店" cx="743" cy="806" x="739" y="806" width="0" height="0" r="3">
  </circle>
  <circle id="月浦" cx="869" cy="801" x="869" y="794" width="0" height="0" r="3">
  </circle>
  <circle id="宝山区" cx="968" cy="830" x="968" y="830" width="0" height="0">
  </circle>
  <circle id="凌桥" cx="1048" cy="901" x="1048" y="901" width="0" height="0">
  </circle>
  <circle id="罗南" cx="778" cy="869" x="773" y="869" width="0" height="0" r="3">
  </circle>
  <circle id="刘行" cx="795" cy="909" x="785" y="906" width="0" height="0" r="3">
  </circle>
  <circle id="顾村" cx="832" cy="927" x="832" y="927" width="0" height="0">
  </circle>
  <circle id="杨行" cx="898" cy="884" x="891" y="882" width="0" height="0" r="3">
  </circle>
  <circle id="綮家沙" cx="965" cy="936" x="965" y="936" width="0" height="0">
  </circle>
  <circle id="药塘大场" cx="851" cy="1003" x="851" y="1003" width="0" height="0">
  </circle>
  <circle id="戬浜" cx="667" cy="876" x="669" y="886" width="0" height="0" r="3">
  </circle>
  <circle id="曹王" cx="684" cy="771" x="681" y="771" width="0" height="0" r="3">
  </circle>
  <circle id="华亭" cx="647" cy="714" x="655" y="714" width="0" height="0" r="3">
  </circle>
  <circle id="店行" cx="585" cy="731" x="590" y="726" width="0" height="0" r="3">
  </circle>
  <circle id="陆渡" cx="507" cy="710" x="500" y="712" width="0" height="0" r="3">
  </circle>
  <circle id="娄塘" cx="539" cy="777" x="541" y="777" width="0" height="0" r="3">
  </circle>
  <circle id="朱桥" cx="505" cy="817" x="505" y="817" width="0" height="0">
  </circle>
  <circle id="嘉定区" cx="593" cy="865" x="595" y="857" width="0" height="0" r="3">
  </circle>
  <circle id="嘉西" cx="578" cy="896" x="578" y="896" width="0" height="0">
  </circle>
  <circle id="方泰" cx="534" cy="966" x="534" y="966" width="0" height="0">
  </circle>
  <circle id="外冈" cx="493" cy="901" x="493" y="901" width="0" height="0">
  </circle>
  <circle id="望新" cx="442" cy="918" x="442" y="918" width="0" height="0">
  </circle>
  <circle id="天福庵" cx="402" cy="957" x="402" y="957" width="0" height="0">
  </circle>
  <circle id="马陆" cx="637" cy="950" x="638" y="949" width="0" height="0" r="3">
  </circle>
  <circle id="南翔" cx="690" cy="1033" x="690" y="1033" width="0" height="0">
  </circle>
  <circle id="安亭" cx="443" cy="1011" x="443" y="1011" width="0" height="0">
  </circle>
  <circle id="东沟" cx="1099" cy="1034" x="1099" y="1034" width="0" height="0">
  </circle>
  <circle id="朱家角" cx="298" cy="1346" x="298" y="1346" width="0" height="0">
  </circle>
  <circle id="庙头" cx="372" cy="1393" x="372" y="1393" width="0" height="0">
  </circle>
  <circle id="西岑" cx="159" cy="1419" x="159" y="1419" width="0" height="0">
  </circle>
  <circle id="金泽" cx="74" cy="1480" x="74" y="1480" width="0" height="0">
  </circle>
  <circle id="凤凰山" cx="540" cy="1349" x="540" y="1349" width="0" height="0">
  </circle>
  <circle id="天马山" cx="440" cy="1419" x="440" y="1419" width="0" height="0">
  </circle>
  <circle id="小昆山" cx="413" cy="1473" x="418" y="1475" width="0" height="0" r="3">
  </circle>
  <circle id="练塘" cx="266" cy="1531" x="270" y="1531" width="0" height="0" r="3">
  </circle>
  <circle id="松江区" cx="561" cy="1527" x="561" y="1527" width="0" height="0">
  </circle>
  <circle id="新桥" cx="690" cy="1435" x="690" y="1435" width="0" height="0">
  </circle>
  <circle id="高桥2" cx="688" cy="1508" x="688" y="1508" width="0" height="0">高桥</circle>
  <circle id="得胜港" cx="699" cy="1576" x="699" y="1576" width="0" height="0">
  </circle>
  <circle id="蒸淀" cx="267" cy="1595" x="267" y="1595" width="0" height="0">
  </circle>
  <circle id="朱家角" cx="298" cy="1346" x="298" y="1346" width="0" height="0">
  </circle>
  <circle id="沈巷" cx="292" cy="1412" x="292" y="1412" width="0" height="0">
  </circle>
  <circle id="西岑" cx="159" cy="1419" x="159" y="1419" width="0" height="0">
  </circle>
  <circle id="金泽" cx="74" cy="1480" x="74" y="1480" width="0" height="0">
  </circle>
  <circle id="陈坊桥" cx="493" cy="1371" x="493" y="1371" width="0" height="0">
  </circle>
  <circle id="塘桥" cx="565" cy="1375" x="565" y="1375" width="0" height="0">
  </circle>
  <circle id="富林" cx="504" cy="1435" x="504" y="1435" width="0" height="0">
  </circle>
  <circle id="洞泾" cx="630" cy="1397" x="630" y="1397" width="0" height="0">
  </circle>
  <circle id="卖花桥" cx="621" cy="1438" x="621" y="1438" width="0" height="0">
  </circle>
  <circle id="华阳桥" cx="635" cy="1540" x="635" y="1540" width="0" height="0">
  </circle>
  <circle id="小蒸" cx="326" cy="1562" x="326" y="1562" width="0" height="0">
  </circle>
  <circle id="新无" cx="215" cy="1651" x="215" y="1651" width="0" height="0">
  </circle>
  <circle id="新浜" cx="292" cy="1658" x="292" y="1658" width="0" height="0">
  </circle>
  <circle id="塔汇" cx="496" cy="1605" x="496" y="1605" width="0" height="0">
  </circle>
  <circle id="新五库" cx="435" cy="1625" x="435" y="1625" width="0" height="0">
  </circle>
  <circle id="新泖" cx="370" cy="1700" x="370" y="1700" width="-1" height="0">
  </circle>
  <circle id="枫泾" cx="216" cy="1740" x="216" y="1740" width="0" height="0">
  </circle>
  <circle id="兴塔" cx="313" cy="1783" x="315" y="1789" width="0" height="0" r="3">
  </circle>
  <circle id="朱泾" cx="456" cy="1735" x="456" y="1735" width="0" height="0">
  </circle>
  <circle id="三召址" cx="525" cy="1735" x="525" y="1740" width="0" height="0" r="3">
  </circle>
  <circle id="松隐" cx="576" cy="1745" x="576" y="1745" width="0" height="0">
  </circle>
  <circle id="亭林" cx="696" cy="1757" x="696" y="1757" width="0" height="0">
  </circle>
  <circle id="张泽" cx="642" cy="1683" x="642" y="1683" width="0" height="0">
  </circle>
  <circle id="米市渡" cx="593" cy="1603" x="593" y="1603" width="0" height="0">
  </circle>
  <circle id="叶谢" cx="732" cy="1647" x="732" y="1647" width="0" height="0">
  </circle>
  <circle id="邱桥" cx="833" cy="1603" x="826" y="1609" width="0" height="0" r="3">
  </circle>
  <circle id="新埭" cx="249" cy="1880" x="249" y="1880" width="0" height="0">
  </circle>
  <circle id="下坊" cx="399" cy="1815" x="399" y="1815" width="0" height="0"  showtitle="1">
  </circle>
  <circle id="吕巷" cx="480" cy="1860" x="475" y="1860" width="0" height="0" r="3">
  </circle>
  <circle id="廊下" cx="507" cy="1934" x="507" y="1934" width="0" height="0">
  </circle>
  <circle id="干巷" cx="568" cy="1862" x="568" y="1862" width="0" height="0">
  </circle>
  <circle id="后岗" cx="617" cy="1805" x="617" y="1805" width="0" height="0">
  </circle>
  <circle id="张堰" cx="644" cy="1901" x="644" y="1901" width="0" height="0">
  </circle>
  <circle id="钱圩" cx="593" cy="1951" x="593" y="1951" width="0" height="0">
  </circle>
  <circle id="山阳" cx="783" cy="1961" x="783" y="1961" width="0" height="0">
  </circle>
  <circle id="朱行" cx="727" cy="1825" x="727" y="1825" width="0" height="0">
  </circle>
  <circle id="阮巷" cx="793" cy="1849" x="793" y="1849" width="0" height="0">
  </circle>
  <circle id="胡桥" cx="886" cy="1859" x="886" y="1859" width="0" height="0">
  </circle>
  <circle id="漕泾" cx="851" cy="1912" x="851" y="1912" width="0" height="0">
  </circle>
  <circle id="庄行" cx="834" cy="1725" x="834" y="1725" width="0" height="0">
  </circle>
  <circle id="烟墩" cx="765" cy="1721" x="765" y="1721" width="0" height="0">
  </circle>
  <circle id="金山明" cx="783" cy="2005" x="783" y="2005" width="0" height="0">
  </circle>
  <circle id="金山区" cx="706" cy="2065" x="706" y="2065" width="0" height="0">
  </circle>
  <circle id="西门" cx="672" cy="2035" x="672" y="2035" width="0" height="0">
  </circle>
  <circle id="柘林" cx="935" cy="1860" x="935" y="1860" width="0" height="0">
  </circle>
  <circle id="新寺" cx="928" cy="1810" x="928" y="1810" width="0" height="0">
  </circle>
  <circle id="钱桥" cx="1051" cy="1789" x="1051" y="1783" width="0" height="0" r="3">
  </circle>
  <circle id="星火农场" cx="1095" cy="1805" x="1095" y="1805" width="0" height="0">
  </circle>
  <circle id="光明" cx="994" cy="1718" x="994" y="1718" width="0" height="0">
  </circle>
  <circle id="奉贤" cx="912" cy="1690" x="909" y="1694" width="0" height="0" r="3">
  </circle>
  <circle id="肖墉" cx="891" cy="1626" x="887" y="1626" width="0" height="0" r="3">
  </circle>
  <circle id="邬桥" cx="813" cy="1623" x="825" y="1611" width="0" height="0" r="3">
  </circle>
  <circle id="西渡口" cx="882" cy="1568" x="882" y="1568" width="0" height="0">
  </circle>
  <circle id="闵行区" cx="866" cy="1540" x="862" y="1540" width="0" height="0" r="3">
  </circle>
  <circle id="金汇" cx="981" cy="1577" x="981" y="1577" width="0" height="0">
  </circle>
  <circle id="齐贤" cx="998" cy="1626" x="998" y="1626" width="0" height="0">
  </circle>
  <circle id="闸港" cx="987" cy="1510" x="987" y="1510" width="0" height="0">
  </circle>
  <circle id="鲁汇" cx="1045" cy="1531" x="1045" y="1531" width="0" height="0">
  </circle>
  <circle id="泰日" cx="1082" cy="1583" x="1082" y="1583" width="0" height="0">
  </circle>
  <circle id="青村" cx="1115" cy="1690" x="1115" y="1690" width="0" height="0">
  </circle>
  <circle id="头桥" cx="1212" cy="1652" x="1212" y="1652" width="0" height="0">
  </circle>
  <circle id="新市" cx="1240" cy="1600" x="1240" y="1600" width="0" height="0">
  </circle>
  <circle id="墉外1" cx="1211" cy="1707" x="1211" y="1707" width="0" height="0">墉外</circle>
  <circle id="墉外2" cx="1170" cy="1726" x="1170" y="1728" width="0" height="0" r="3">墉外</circle>
  <circle id="五四农场" cx="1331" cy="1798" x="1331" y="1798" width="0" height="0">
  </circle>
  <circle id="平安" cx="1325" cy="1743" x="1325" y="1743" width="0" height="0">
  </circle>
  <circle id="四团" cx="1323" cy="1658" x="1323" y="1658" width="0" height="0">
  </circle>
  <circle id="大团" cx="1351" cy="1607" x="1351" y="1607" width="0" height="0">
  </circle>
  <circle id="三墩" cx="1385" cy="1570" x="1385" y="1570" width="0" height="0">
  </circle>
  <circle id="马厂" cx="1463" cy="1668" x="1463" y="1668" width="0" height="0">
  </circle>
  <circle id="泥城" cx="1485" cy="1723" x="1485" y="1723" width="0" height="0">
  </circle>
  <circle id="果园" cx="1527" cy="1766" x="1520" y="1766" width="0" height="0" r="3">
  </circle>
  <circle id="彭镇" cx="1444" cy="1729" x="1444" y="1729" width="0" height="0">
  </circle>
  <circle id="石皮泐" cx="1546" cy="1687" x="1549" y="1687" width="0" height="0" r="3">
  </circle>
  <circle id="新港" cx="1559" cy="1587" x="1559" y="1587" width="0" height="0">
  </circle>
  <circle id="万祥" cx="1475" cy="1601" x="1475" y="1601" width="0" height="0">
  </circle>
  <circle id="黄路" cx="1409" cy="1508" x="1409" y="1508" width="0" height="0">
  </circle>
  <circle id="老港" cx="1507" cy="1488" x="1507" y="1488" width="0" height="0">
  </circle>
  <circle id="朝阳农场" cx="1505" cy="1399" x="1505" y="1399" width="0" height="0">
  </circle>
  <circle id="南汇" cx="1370" cy="1471" x="1370" y="1471" width="0" height="0">
  </circle>
  <circle id="宣桥" cx="1291" cy="1524" x="1291" y="1524" width="0" height="0">
  </circle>
  <circle id="下沙" cx="1121" cy="1471" x="1121" y="1471" width="0" height="0">
  </circle>
  <circle id="航头" cx="1128" cy="1506" x="1128" y="1506" width="0" height="0">
  </circle>
  <circle id="新场" cx="1205" cy="1503" x="1205" y="1503" width="0" height="0">
  </circle>
  <circle id="坦直" cx="1212" cy="1423" x="1212" y="1423" width="0" height="0">
  </circle>
  <circle id="三灶" cx="1300" cy="1433" x="1300" y="1433" width="0" height="0">
  </circle>
  <circle id="盐仓" cx="1384" cy="1394" x="1384" y="1394" width="0" height="0">
  </circle>
  <circle id="东海" cx="1465" cy="1385" x="1465" y="1385" width="0" height="0">
  </circle>
  <circle id="祝桥" cx="1381" cy="1357" x="1381" y="1357" width="0" height="0">
  </circle>
  <circle id="六灶" cx="1279" cy="1338" x="1279" y="1338" width="0" height="0">
  </circle>
  <circle id="瓦屑" cx="1219" cy="1339" x="1219" y="1339" width="0" height="0">
  </circle>
  <circle id="六团" cx="1349" cy="1274" x="1349" y="1274" width="0" height="0">
  </circle>
  <circle id="施湾" cx="1374" cy="1282" x="1374" y="1282" width="0" height="0">
  </circle>
  <circle id="江镇" cx="1363" cy="1249" x="1363" y="1249" width="0" height="0">
  </circle>
  <circle id="黄楼" cx="1241" cy="1251" x="1241" y="1251" width="0" height="0">
  </circle>
  <circle id="横沔" cx="1199" cy="1293" x="1199" y="1293" width="0" height="0">
  </circle>
  <circle id="杜行" cx="981" cy="1467" x="981" y="1467" width="0" height="0">
  </circle>
  <circle id="召家楼" cx="1067" cy="1416" x="1067" y="1416" width="0" height="0">
  </circle>
  <circle id="周浦" cx="1101" cy="1349" x="1101" y="1349" width="0" height="0">
  </circle>
  <circle id="陈行" cx="981" cy="1372" x="981" y="1372" width="0" height="0">
  </circle>
  <circle id="吴泾" cx="936" cy="1461" x="936" y="1461" width="0" height="0">
  </circle>
  <circle id="康桥" cx="1077" cy="1276" x="1077" y="1276" width="0" height="0">
  </circle>
  <circle id="北蔡" cx="1067" cy="1217" x="1067" y="1217" width="0" height="0">
  </circle>
  <circle id="六里" cx="1013" cy="1211" x="1013" y="1211" width="0" height="0">
  </circle>
  <circle id="杨思" cx="967" cy="1260" x="967" y="1260" width="0" height="0">
  </circle>
  <circle id="三林" cx="984" cy="1304" x="984" y="1304" width="0" height="0">
  </circle>
  <circle id="张江" cx="1167" cy="1182" x="1167" y="1182" width="0" height="0">
  </circle>
  <circle id="孙小桥" cx="1182" cy="1234" x="1182" y="1234" width="0" height="0">
  </circle>
  <circle id="唐镇" cx="1236" cy="1184" x="1236" y="1184" width="0" height="0">
  </circle>
  <circle id="浦东新区" cx="1294" cy="1204" x="1294" y="1204" width="0" height="0">
  </circle>
  <circle id="合庆" cx="1321" cy="1134" x="1321" y="1134" width="0" height="0">
  </circle>
  <circle id="曹路" cx="1277" cy="1090" x="1277" y="1090" width="0" height="0">
  </circle>
  <circle id="顾路" cx="1245" cy="1026" x="1245" y="1026" width="0" height="0">
  </circle>
  <circle id="杨园" cx="1186" cy="1009" x="1186" y="1009" width="0" height="0">
  </circle>
  <circle id="金桥" cx="1130" cy="1103" x="1130" y="1103" width="0" height="0">
  </circle>
  <circle id="高桥1" cx="1111" cy="931" x="1111" y="931" width="0" height="0">高桥</circle>
  <circle id="虹桥" cx="822" cy="1236" x="822" y="1236" width="0" height="0">
  </circle>
  <circle id="七宝" cx="761" cy="1282" x="761" y="1282" width="0" height="0">
  </circle>
  <circle id="九亭" cx="714" cy="1327" x="714" y="1327" width="0" height="0">
  </circle>
  <circle id="梅陇" cx="856" cy="1311" x="856" y="1311" width="0" height="0">
  </circle>
  <circle id="港口" cx="903" cy="1299" x="903" y="1299" width="0" height="0">
  </circle>
  <circle id="漕河泾" cx="854" cy="1262" x="854" y="1262" width="0" height="0">
  </circle>
  <circle id="龙华" cx="898" cy="1236" x="898" y="1236" width="0" height="0">
  </circle>
  <circle id="真如" cx="836" cy="1100" x="836" y="1100" width="0" height="0">
  </circle>
  <circle id="江桥" cx="744" cy="1096" x="744" y="1096" width="0" height="0">
  </circle>
  <circle id="北新泾" cx="715" cy="1152" x="715" y="1157" width="0" height="0" r="3">
  </circle>
  <circle id="凤溪" cx="566" cy="1187" x="566" y="1187" width="0" height="0">
  </circle>
  <circle id="重固" cx="485" cy="1195" x="485" y="1195" width="0" height="0">
  </circle>
  <circle id="纪王" cx="635" cy="1115" x="635" y="1115" width="0" height="0">
  </circle>
  <circle id="黄渡" cx="549" cy="1071" x="551" y="1076" width="0" height="0" r="3">
  </circle>
  <circle id="华漕" cx="690" cy="1137" x="690" y="1137" width="0" height="0">
  </circle>
  <circle id="封浜" cx="667" cy="1068" x="667" y="1072" width="0" height="0" r="3">
  </circle>
  <circle id="赵港" cx="517" cy="1282" x="517" y="1280" width="0" height="0" r="3">
  </circle>
  <circle id="方家窑" cx="569" cy="1266" x="569" y="1273" width="0" height="0" r="3">
  </circle>
  <circle id="徐泾" cx="639" cy="1249" x="639" y="1249" width="0" height="0">
  </circle>
  <circle id="赵屯" cx="340" cy="1096" x="337" y="1093" width="0" height="0" r="3">
  </circle>
  <circle id="白鹤" cx="431" cy="1093" x="431" y="1093" width="0" height="0">
  </circle>
  <circle id="香花桥" cx="409" cy="1222" x="409" y="1222" width="0" height="0">
  </circle>
  <circle id="春申" cx="768" cy="1405" x="768" y="1405" width="0" height="0">
  </circle>
  <circle id="曹行" cx="892" cy="1391" x="892" y="1391" width="0" height="0">
  </circle>
  <circle id="北桥" cx="847" cy="1479" x="842" y="1479" width="0" height="0" r="3">
  </circle>
  <circle id="马桥" cx="798" cy="1481" x="798" y="1481" width="0" height="0">
  </circle>
  <circle id="大港" cx="433" cy="1533" x="433" y="1533" width="0" height="0">
  </circle>
  <circle id="大盈" cx="347" cy="1168" x="347" y="1168" width="0" height="0" >
  </circle>
</g>
</svg>
